<svg xmlns="http://www.w3.org/2000/svg" width="290" height="71" stroke="#000" stroke-linecap="round" stroke-linejoin="round" fill="#fff" fill-rule="evenodd"><defs><linearGradient id="A" x1="0.00%" y1="50.00%" x2="100.00%" y2="50.00%"><stop offset="21.51%" stop-color="#32e7b6"/><stop offset="98.39%" stop-color="#ff40a7"/></linearGradient></defs><g stroke="none" fill-rule="nonzero"><path d="M73.74 32.892c.008-.068.02-.134.02-.203V19.704c0-.03-.007-.057-.01-.085-.004-.09-.01-.18-.027-.265-.015-.076-.042-.148-.067-.22l-.035-.113c-.034-.08-.077-.155-.122-.228l-.042-.078a1.79 1.79 0 0 0-.223-.271l-17.42-17.42a1.8 1.8 0 0 0-.273-.224C55.5.77 55.453.75 55.41.727l-.174-.09c-.058-.024-.118-.038-.178-.055l-.154-.046a1.79 1.79 0 0 0-.697 0c-.053.01-.103.03-.154.046l-.178.055c-.06.025-.116.06-.173.09L53.567.8a1.79 1.79 0 0 0-.273.224L37.13 17.187 20.965 1.023a1.8 1.8 0 0 0-.273-.224C20.65.77 20.604.75 20.56.727l-.174-.09c-.058-.024-.118-.038-.178-.055l-.154-.046a1.79 1.79 0 0 0-.697 0c-.053.01-.103.03-.154.046l-.178.055c-.06.025-.116.06-.174.09L18.718.8c-.1.066-.2.14-.273.224l-17.42 17.42a1.79 1.79 0 0 0-.224.274c-.028.042-.047.087-.07.13l-.093.176c-.024.058-.038.118-.055.177l-.046.155a1.8 1.8 0 0 0-.035.349V32.69c0 .07.013.136.02.204a1.77 1.77 0 0 0 .501 1.474l34.85 34.85c.347.348.803.522 1.26.522s.91-.174 1.26-.522l17.335-17.335a1.79 1.79 0 0 0 .229-.279c.018-.027.03-.057.046-.085l.117-.222c.017-.04.025-.082.038-.123l.062-.21c.013-.067.015-.135.02-.203.004-.048.014-.093.014-.142V37.213c0-.117-.012-.233-.035-.348-.01-.054-.03-.104-.046-.156l-.055-.176c-.026-.062-.06-.12-.093-.177l-.07-.13a1.79 1.79 0 0 0-.494-.494c-.042-.028-.088-.048-.133-.072l-.173-.09c-.058-.024-.118-.038-.178-.055l-.154-.046a1.79 1.79 0 0 0-.697 0c-.053.01-.103.03-.154.046l-.178.055c-.06.025-.116.06-.173.09l-.133.072c-.098.066-.2.14-.273.224l-16.08 16.08-25.63-25.63 8.205-8.205L35.87 34.367c.347.348.803.52 1.26.52s.91-.174 1.26-.52l16.19-16.2 8.34 8.02-2.333 2.318a1.82 1.82 0 0 0-.224.273c-.03.044-.05.092-.075.138l-.09.168c-.026.063-.04.128-.06.193l-.042.14a1.79 1.79 0 0 0-.035.349V43.17c0 .023.006.044.007.066.003.094.01.187.028.28.01.053.03.102.044.153l.056.18c.023.057.056.11.085.162l.078.144c.05.076.1.145.172.212.017.018.03.04.047.058.085.085.176.16.274.225.04.027.086.046.128.07l.18.095c.057.024.117.037.176.055l.157.047c.115.023.232.035.35.035a1.79 1.79 0 0 0 .348-.035c.05-.01.1-.03.15-.044l.183-.057c.057-.024.11-.056.163-.085l.143-.078a1.77 1.77 0 0 0 .209-.17c.02-.017.04-.03.06-.048l10.14-10.062a1.77 1.77 0 0 0 .506-1.479zm-10.12-2.374l6.58-6.536v8.385l-6.58 6.53v-8.378zM21.485 6.577L35.35 20.442v8.37L21.485 14.947v-8.37zM38.91 20.44L52.774 6.577v8.37L38.91 28.8v-8.37zm-3.56 34.85v8.37L4.06 32.37v-8.37l31.29 31.29zm17.34-5.41L38.9 63.66v-8.37L52.7 41.5v8.37zM4.798 19.704L17.925 6.577v8.37L8.983 23.89l-4.185-4.185zm51.537-4.778v-8.35L69.457 19.7l-4.013 3.986-9.1-8.76z" fill="url(#A)"/><path d="M96.014 21.98c-3.413 0-6.378 1.192-8.818 3.543V13.116a1.9 1.9 0 0 0-.576-1.386 1.89 1.89 0 0 0-1.386-.576c-.538 0-1.003.194-1.385.576s-.576.848-.576 1.386V34.72c0 3.503 1.255 6.535 3.73 9s5.507 3.73 9 3.73 6.534-1.255 9-3.73 3.73-5.508 3.73-9-1.255-6.534-3.73-9-5.508-3.73-9-3.73zm0 21.56c-2.428 0-4.528-.868-6.24-2.58a8.53 8.53 0 0 1-2.58-6.24 8.53 8.53 0 0 1 2.58-6.24 8.53 8.53 0 0 1 6.24-2.58c2.43 0 4.527.868 6.24 2.58s2.58 3.8 2.58 6.24-.868 4.527-2.58 6.24-3.8 2.58-6.24 2.58zm42.53-19.6V45.5a1.91 1.91 0 0 1-.577 1.384 1.89 1.89 0 0 1-1.384.577 1.89 1.89 0 0 1-1.963-1.961v-1.08l-.222.196-.677.55-.67.47a11.02 11.02 0 0 1-2.141 1.085l-1.015.328c-.582.16-1.18.27-1.797.337l-.276.027-.22.017-.298.017-.604.015c-.203 0-.406-.005-.604-.015l-.298-.017-.22-.017-.276-.027a11.43 11.43 0 0 1-1.797-.337l-1.015-.328c-.748-.284-1.462-.645-2.14-1.085l-.67-.47-.677-.55-.222-.196-.45-.433c-2.305-2.303-3.474-5.12-3.474-8.37V23.94c0-.538.196-1.002.577-1.386a1.9 1.9 0 0 1 1.386-.577 1.9 1.9 0 0 1 1.384.577 1.89 1.89 0 0 1 .577 1.386v11.677c0 2.176.782 4.058 2.322 5.6s3.422 2.32 5.598 2.32 4.058-.78 5.598-2.32 2.322-3.425 2.322-5.6V23.94c0-.538.193-1.002.577-1.386a1.9 1.9 0 0 1 1.386-.577c.535 0 1.002.196 1.383.577a1.89 1.89 0 0 1 .577 1.386zM156.9 43.538c-3.516 0-5.225-1.7-5.225-5.225V25.9h3.45c.538 0 1.004-.194 1.386-.576a1.9 1.9 0 0 0 .576-1.386c0-.536-.194-1.003-.576-1.385a1.9 1.9 0 0 0-1.386-.576h-3.45V13.16a1.9 1.9 0 0 0-.576-1.386c-.382-.383-.85-.576-1.386-.576a1.9 1.9 0 0 0-1.386.576 1.89 1.89 0 0 0-.576 1.386v8.818h-1.632c-.537 0-1.003.194-1.385.576s-.576.848-.576 1.385a1.9 1.9 0 0 0 .576 1.386c.382.382.848.576 1.385.576h1.632v12.4c0 6.07 3.078 9.148 9.15 9.148a1.9 1.9 0 0 0 1.386-.576 1.89 1.89 0 0 0 .576-1.386 1.9 1.9 0 0 0-1.962-1.962zm18.186-21.558c-3.503 0-6.534 1.255-9 3.73s-3.73 5.507-3.73 9 1.255 6.535 3.73 9 5.507 3.73 9 3.73 6.534-1.255 9-3.73 3.73-5.507 3.73-9-1.255-6.534-3.73-9-5.508-3.73-9-3.73zm0 21.56a8.53 8.53 0 0 1-6.24-2.58 8.53 8.53 0 0 1-2.58-6.24 8.53 8.53 0 0 1 2.58-6.24 8.53 8.53 0 0 1 6.24-2.58c2.43 0 4.527.868 6.24 2.58s2.58 3.8 2.58 6.24-.868 4.527-2.58 6.24-3.8 2.58-6.24 2.58zM215.68 25.7c-2.476-2.476-5.508-3.73-9-3.73s-6.534 1.255-9 3.73-3.73 5.507-3.73 9v21.56a1.9 1.9 0 0 0 .576 1.386 1.89 1.89 0 0 0 1.385.576 1.9 1.9 0 0 0 1.962-1.962V43.92c2.44 2.35 5.406 3.543 8.818 3.543 3.502 0 6.534-1.255 9-3.73s3.73-5.507 3.73-9-1.255-6.534-3.73-9zm-9 17.83a8.53 8.53 0 0 1-6.24-2.58 8.53 8.53 0 0 1-2.58-6.24 8.53 8.53 0 0 1 2.58-6.24 8.53 8.53 0 0 1 6.24-2.58c2.43 0 4.527.868 6.24 2.58s2.58 3.8 2.58 6.24-.868 4.527-2.58 6.24-3.8 2.58-6.24 2.58zm40.314-17.83c-2.476-2.476-5.508-3.73-9-3.73s-6.534 1.255-9 3.73-3.73 5.507-3.73 9 1.255 6.535 3.73 9 5.507 3.73 9 3.73c3.17 0 5.965-1.034 8.317-3.083a1.96 1.96 0 0 0 .563-1.394c0-.534-.194-1.003-.576-1.386s-.85-.576-1.386-.576a1.96 1.96 0 0 0-1.232.423c-1.578 1.4-3.5 2.093-5.685 2.093-2.428 0-4.528-.868-6.24-2.58-1.237-1.237-2.04-2.676-2.385-4.277h19.404c.537 0 1.003-.194 1.385-.576s.576-.848.576-1.386c0-3.503-1.256-6.534-3.73-9zm-9 .192c2.428 0 4.527.868 6.24 2.58 1.237 1.237 2.04 2.675 2.385 4.277h-17.26c.346-1.602 1.148-3.04 2.385-4.277a8.54 8.54 0 0 1 6.24-2.58zm5.736-6.128a1.83 1.83 0 0 1-1.297-.537L238 14.792l-4.435 4.435c-.716.716-1.877.716-2.593 0s-.716-1.877 0-2.593l5.73-5.73c.716-.716 1.877-.716 2.593 0l5.73 5.73c.716.716.716 1.877 0 2.593a1.83 1.83 0 0 1-1.296.537zm43.693 24.352a1.89 1.89 0 0 0-1.386-.577c-3.46 0-5.17-1.655-5.22-5.06l-.002-3.92-.007-.32-.015-.318-.022-.315-.027-.306c0-.01 0-.017-.002-.024l-.034-.3-.042-.306v-.01l-.108-.6-.064-.298-.07-.296-.078-.293-.086-.288-.093-.288-.098-.28c-.005-.015-.01-.032-.017-.046l-.1-.237-.112-.28-.117-.27-.188-.396c-.005-.017-.015-.032-.022-.046l-.196-.374c-.005-.007-.007-.015-.012-.022l-.137-.242-.154-.262-.164-.257-.17-.254-.176-.252-.183-.25-.377-.477c-.005-.007-.012-.015-.02-.022l-.195-.23-.325-.357-.33-.345-.416-.398-.183-.166-.5-.418-.2-.15-.222-.17-.225-.164-.2-.144-.135-.1-.288-.186-.293-.176-.208-.12c-.02-.012-.04-.022-.06-.032l-.2-.112-.242-.125-.244-.117-.623-.27-.626-.232c-.007-.005-.017-.007-.027-.01l-.3-.098-.6-.17-.134-.032-.26-.06-.355-.07-.327-.056-.345-.05-.35-.042-.354-.032-.257-.017-.174-.01-.284-.01-.362-.005-.56.012-.692.044-.303.032-.303.037c-2.642.36-4.977 1.506-6.964 3.422l-.2.186c-2.476 2.476-3.733 5.505-3.733 9.008l.002.164.007.32.015.318.024.376.024.252.022.208.024.188.032.218.06.364.046.244.064.298.07.296.078.293.085.3.117.36.073.2.22.562.115.264.105.225.135.274a12.24 12.24 0 0 0 .611 1.068l.14.2.418.584.36.455a12.8 12.8 0 0 0 .88.968c.755.755 1.565 1.398 2.42 1.924l.237.142.237.134.24.13.242.125.244.117.135.06.284.122c.054.027.1.05.166.07l.3.122.367.132.325.103.6.17.12.03.548.117.073.012.335.06.345.05.35.042.354.032.26.017.17.01.286.01.367.005.56-.012.687-.044.303-.032.303-.037.5-.076c2.423-.425 4.58-1.53 6.432-3.305a.67.67 0 0 0 .044-.041l.2-.186.66-.706c.628 1.428 1.6 2.5 2.92 3.25 1.403.792 3.197 1.188 5.375 1.188a1.89 1.89 0 0 0 1.386-.577c.384-.38.577-.848.577-1.384a1.89 1.89 0 0 0-.577-1.386zm-10.553-8.722l-.04.416c0 .007-.002.017-.002.024l-.05.35c-.002.027-.007.054-.012.083l-.07.372-.088.374-.024.093-.085.296-.034.1-.108.3-.14.35-.03.066-.154.337-.152.298-.015.027-.085.15-.164.28-.16.244-.022.032-.095.137-.218.296-.196.247-.063.076-.242.276-.3.325c-1.7 1.7-3.8 2.58-6.24 2.58s-4.527-.868-6.238-2.58l-.3-.315-.252-.286-.064-.076-.23-.3c-.01-.012-.017-.024-.027-.034l-.208-.288-.044-.066-.196-.303-.2-.357-.188-.364-.17-.374-.152-.38-.134-.4-.113-.396-.095-.403-.07-.37c-.002-.022-.007-.046-.012-.07l-.05-.4-.04-.428-.02-.433-.002-.227.002-.234.02-.425v-.012l.04-.416c0-.007.002-.015.002-.025l.05-.35c.002-.03.007-.056.012-.083l.07-.372.088-.374.024-.093.086-.296.034-.1.108-.3.14-.35a.39.39 0 0 1 .029-.066l.154-.337.152-.298.015-.027.086-.15.15-.254.174-.27c.007-.012.015-.022.022-.032a1.04 1.04 0 0 1 .073-.105l.178-.25.257-.324.064-.076.242-.276.3-.325c1.7-1.7 3.8-2.58 6.238-2.58a8.53 8.53 0 0 1 6.24 2.58l.3.315.284.325c.007.007.012.012.017.02l.247.313.247.34.225.347.2.357.36.738.15.38.135.4.112.396.166.773.012.07.05.362c0 .007.002.017.002.027l.04.428.02.43v.464l-.02.425v.012z" fill="#5c5c5c"/></g></svg>